<svg id="visual" viewBox="0 0 900 600" width="900" height="600" xmlns="http://www.w3.org/2000/svg" xmlns:xlink="http://www.w3.org/1999/xlink" version="1.1"><g><g transform="translate(714 129)"><path d="M0 -94.6L81.9 -47.3L81.9 47.3L0 94.6L-81.9 47.3L-81.9 -47.3Z" fill="none" stroke="#297EA6" stroke-width="7"></path></g><g transform="translate(304 205)"><path d="M0 -85L73.6 -42.5L73.6 42.5L0 85L-73.6 42.5L-73.6 -42.5Z" fill="none" stroke="#297EA6" stroke-width="7"></path></g><g transform="translate(175 517)"><path d="M0 -80L69.3 -40L69.3 40L0 80L-69.3 40L-69.3 -40Z" fill="none" stroke="#297EA6" stroke-width="7"></path></g><g transform="translate(535 229)"><path d="M0 -82L71 -41L71 41L0 82L-71 41L-71 -41Z" stroke="#297EA6" fill="none" stroke-width="7"></path></g><g transform="translate(529 484)"><path d="M0 -71L61.5 -35.5L61.5 35.5L0 71L-61.5 35.5L-61.5 -35.5Z" stroke="#297EA6" fill="none" stroke-width="7"></path></g><g transform="translate(839 313)"><path d="M0 -55L47.6 -27.5L47.6 27.5L0 55L-47.6 27.5L-47.6 -27.5Z" stroke="#297EA6" fill="none" stroke-width="7"></path></g><g transform="translate(531 28)"><path d="M0 -58L50.2 -29L50.2 29L0 58L-50.2 29L-50.2 -29Z" stroke="#297EA6" fill="none" stroke-width="7"></path></g><g transform="translate(28 130)"><path d="M0 -86L74.5 -43L74.5 43L0 86L-74.5 43L-74.5 -43Z" stroke="#297EA6" fill="none" stroke-width="7"></path></g><g transform="translate(801 521)"><path d="M0 -91L78.8 -45.5L78.8 45.5L0 91L-78.8 45.5L-78.8 -45.5Z" stroke="#297EA6" fill="none" stroke-width="7"></path></g><g transform="translate(348 424)"><path d="M0 -47L40.7 -23.5L40.7 23.5L0 47L-40.7 23.5L-40.7 -23.5Z" stroke="#297EA6" fill="none" stroke-width="7"></path></g><g transform="translate(1 361)"><path d="M0 -64L55.4 -32L55.4 32L0 64L-55.4 32L-55.4 -32Z" stroke="#297EA6" fill="none" stroke-width="7"></path></g></g></svg>