<svg id="visual" viewBox="0 0 900 600" width="900" height="600" xmlns="http://www.w3.org/2000/svg" xmlns:xlink="http://www.w3.org/1999/xlink" version="1.1"><path d="M0 383L21.5 378.5C43 374 86 365 128.8 353C171.7 341 214.3 326 257.2 320.7C300 315.3 343 319.7 385.8 319.8C428.7 320 471.3 316 514.2 325.3C557 334.7 600 357.3 642.8 366C685.7 374.7 728.3 369.3 771.2 357.3C814 345.3 857 326.7 878.5 317.3L900 308L900 601L878.5 601C857 601 814 601 771.2 601C728.3 601 685.7 601 642.8 601C600 601 557 601 514.2 601C471.3 601 428.7 601 385.8 601C343 601 300 601 257.2 601C214.3 601 171.7 601 128.8 601C86 601 43 601 21.5 601L0 601Z" fill="#ffa096"></path><path d="M0 419L21.5 411.3C43 403.7 86 388.3 128.8 392C171.7 395.7 214.3 418.3 257.2 426.5C300 434.7 343 428.3 385.8 415C428.7 401.7 471.3 381.3 514.2 385.2C557 389 600 417 642.8 429.8C685.7 442.7 728.3 440.3 771.2 433.5C814 426.7 857 415.3 878.5 409.7L900 404L900 601L878.5 601C857 601 814 601 771.2 601C728.3 601 685.7 601 642.8 601C600 601 557 601 514.2 601C471.3 601 428.7 601 385.8 601C343 601 300 601 257.2 601C214.3 601 171.7 601 128.8 601C86 601 43 601 21.5 601L0 601Z" fill="#fc8277"></path><path d="M0 451L21.5 458.2C43 465.3 86 479.7 128.8 488.3C171.7 497 214.3 500 257.2 489.2C300 478.3 343 453.7 385.8 443.7C428.7 433.7 471.3 438.3 514.2 439.3C557 440.3 600 437.7 642.8 443.8C685.7 450 728.3 465 771.2 475.2C814 485.3 857 490.7 878.5 493.3L900 496L900 601L878.5 601C857 601 814 601 771.2 601C728.3 601 685.7 601 642.8 601C600 601 557 601 514.2 601C471.3 601 428.7 601 385.8 601C343 601 300 601 257.2 601C214.3 601 171.7 601 128.8 601C86 601 43 601 21.5 601L0 601Z" fill="#e6665c"></path><path d="M0 536L21.5 530.7C43 525.3 86 514.7 128.8 510.5C171.7 506.3 214.3 508.7 257.2 506.5C300 504.3 343 497.7 385.8 505.5C428.7 513.3 471.3 535.7 514.2 536.5C557 537.3 600 516.7 642.8 510.2C685.7 503.7 728.3 511.3 771.2 519.8C814 528.3 857 537.7 878.5 542.3L900 547L900 601L878.5 601C857 601 814 601 771.2 601C728.3 601 685.7 601 642.8 601C600 601 557 601 514.2 601C471.3 601 428.7 601 385.8 601C343 601 300 601 257.2 601C214.3 601 171.7 601 128.8 601C86 601 43 601 21.5 601L0 601Z" fill="#c04e45"></path></svg>